<?xml version="1.0" encoding="utf-8"?>
<!-- Generator: Adobe Illustrator 19.2.1, SVG Export Plug-In . SVG Version: 6.00 Build 0)  -->
<svg version="1.1" id="Layer_2" xmlns="http://www.w3.org/2000/svg" xmlns:xlink="http://www.w3.org/1999/xlink" x="0px" y="0px"
	 viewBox="0 0 178.8 178.8" style="enable-background:new 0 0 178.8 178.8;" xml:space="preserve">
<style type="text/css">
	.st0{fill:#133F51;}
	.st1{display:none;fill:#FFFFFF;}
	.st2{font-family:'GoudyOldStyleT-Regular';}
	.st3{font-size:645.8975px;}
	.st4{fill:#FFFFFF;}
</style>
<rect class="st0" width="178.8" height="178.8"/>
<text transform="matrix(1 0 0 1 55.9151 470.6187)" class="st1 st2 st3">‘</text>
<text transform="matrix(1 0 0 1 -40.0849 470.6188)" class="st1 st2 st3">‘</text>
<path class="st4" d="M65.1,19.3c0,0-31.4,27.3-25,63.8c3.8,20.8,18.9,32,28,38.2s19.5,9.6,9.9,21.4c0,0-5.2,6.1-14.4,13.4
	l-12.3,14.6c0,0-9.6,6.4-21.4-2.4S-9,121.6,6.2,75.9S57.4,1.4,69.6,3.8S69.9,15.8,65.1,19.3z"/>
<path class="st4" d="M157.1,19.3c0,0-31.4,27.3-25,63.8c3.8,20.8,18.9,32,28,38.2c9,6.3,19.5,9.6,9.9,21.4c0,0-5.2,6.1-14.4,13.4
	l-12.3,14.6c0,0-9.6,6.4-21.4-2.4C110,159.3,83,121.6,98.2,75.9s51.3-74.5,63.4-72.1C173.7,6.2,161.9,15.8,157.1,19.3z"/>
</svg>
